<?xml version="1.0" encoding="utf-8"?>
<!-- Generator: Adobe Illustrator 21.1.0, SVG Export Plug-In . SVG Version: 6.00 Build 0)  -->
<svg version="1.1" id="Calque_1" xmlns="http://www.w3.org/2000/svg" xmlns:xlink="http://www.w3.org/1999/xlink" x="0px" y="0px"
	 viewBox="0 0 896 1024" style="enable-background:new 0 0 896 1024;" xml:space="preserve">
<style type="text/css">
	.st0{fill:#58BFE4;}
</style>
<path class="st0" d="M128,768h256v64H128V768z M448,384H128v64h320V384z M576,576V448L384,640l192,192V704h320V576H576z M288,512
	H128v64h160V512z M128,704h160v-64H128V704z M704,768h64v128c-1,18-7,33-19,45s-27,18-45,19H64c-35,0-64-29-64-64V192
	c0-35,29-64,64-64h192C256,57,313,0,384,0s128,57,128,128h192c35,0,64,29,64,64v320h-64V320H64v576h640V768z M128,256h512
	c0-35-29-64-64-64h-64c-35,0-64-29-64-64s-29-64-64-64s-64,29-64,64s-29,64-64,64h-64C157,192,128,221,128,256z"/>
</svg>
